<svg width="16" height="16" viewBox="0 0 16 16" fill="none" xmlns="http://www.w3.org/2000/svg">
<path d="M1.33203 4L5.94071 6.61131C7.63976 7.574 8.35763 7.574 10.0567 6.61131L14.6654 4" stroke="#062740" stroke-width="2" stroke-linejoin="round"/>
<path d="M1.34254 8.9839C1.38612 11.0276 1.40792 12.0494 2.162 12.8064C2.91608 13.5634 3.96558 13.5897 6.06458 13.6424C7.35823 13.675 8.63916 13.675 9.93283 13.6424C12.0318 13.5897 13.0813 13.5634 13.8354 12.8064C14.5895 12.0494 14.6113 11.0276 14.6548 8.9839C14.6689 8.32676 14.6689 7.67356 14.6548 7.01643C14.6113 4.97274 14.5895 3.95089 13.8354 3.19394C13.0813 2.43698 12.0318 2.41062 9.93283 2.35788C8.63916 2.32537 7.35823 2.32537 6.06458 2.35787C3.96558 2.4106 2.91608 2.43697 2.162 3.19393C1.40791 3.95088 1.38612 4.97273 1.34254 7.01643C1.32852 7.67356 1.32853 8.32676 1.34254 8.9839Z" stroke="#062740" stroke-width="2" stroke-linejoin="round"/>
</svg>
