<svg width="48" height="48" viewBox="0 0 48 48" fill="none" xmlns="http://www.w3.org/2000/svg">
<g clip-path="url(#clip0_1441_5579)">
<path d="M8.25 15.75C11.1495 15.75 13.5 13.3995 13.5 10.5C13.5 7.60051 11.1495 5.25 8.25 5.25C5.35051 5.25 3 7.60051 3 10.5C3 13.3995 5.35051 15.75 8.25 15.75Z" stroke="#2977C9" stroke-width="2.25" stroke-miterlimit="10" stroke-linecap="round" stroke-linejoin="round"/>
<path d="M21 30C13.5 26.25 13.5 19.5 7.5 19.5C5.9195 19.5344 4.41329 20.1776 3.29545 21.2954C2.1776 22.4133 1.53441 23.9195 1.5 25.5V42.75H13.5V30.75" stroke="#2977C9" stroke-width="2.25" stroke-miterlimit="10" stroke-linecap="round" stroke-linejoin="round"/>
<path d="M39.75 15.75C42.6495 15.75 45 13.3995 45 10.5C45 7.60051 42.6495 5.25 39.75 5.25C36.8505 5.25 34.5 7.60051 34.5 10.5C34.5 13.3995 36.8505 15.75 39.75 15.75Z" stroke="#2977C9" stroke-width="2.25" stroke-miterlimit="10" stroke-linecap="round" stroke-linejoin="round"/>
<path d="M27 30C34.5 26.25 34.5 19.5 40.5 19.5C42.0805 19.5344 43.5867 20.1776 44.7046 21.2954C45.8224 22.4133 46.4656 23.9195 46.5 25.5V42.75H34.5V30.75" stroke="#2977C9" stroke-width="2.25" stroke-miterlimit="10" stroke-linecap="round" stroke-linejoin="round"/>
</g>
<defs>
<clipPath id="clip0_1441_5579">
<rect width="48" height="48" fill="white"/>
</clipPath>
</defs>
</svg>
