<svg width="238" height="120" viewBox="0 0 238 120" fill="none" xmlns="http://www.w3.org/2000/svg">
<g clip-path="url(#clip0_2080_4095)">
<path d="M34.6644 83.568C26.8845 76.7411 18.2675 79.9806 12.2631 86.8872C5.2659 94.9208 5.81669 103.538 12.3139 109.245C18.6552 114.807 27.3265 114.42 34.5194 106.158C39.9295 99.9431 42.5168 90.4674 34.6644 83.568Z" fill="#085C97"/>
<path d="M6.56601 116.449C3.44969 113.709 1.23928 110.535 0 107.082V115.028C0 115.028 3.38084 116.775 8.896 118.264C8.09881 117.71 7.32335 117.108 6.56601 116.449Z" fill="#085C97"/>
<path d="M40.262 111.764C36.9247 115.601 33.3771 118.315 29.7861 120C35.2035 119.417 41.0049 117.935 46.8788 115.032V100.201C45.567 104.419 43.1899 108.412 40.262 111.767V111.764Z" fill="#085C97"/>
<path d="M27.3301 71.7951C31.7147 71.9799 36.179 73.7192 40.4802 77.495C43.6944 80.3106 45.7417 83.416 46.8795 86.6302V49.7852L27.3301 71.7951Z" fill="#085C97"/>
<path d="M0 0V93.4859C1.1958 89.8406 3.33374 86.1481 6.48267 82.5245L42.1247 42.3276L46.8752 46.7883V0H0Z" fill="#085C97"/>
<path d="M61.3152 99.5154H55.9414L56.1661 98.3449C56.764 98.3449 57.1843 98.316 57.4162 98.2616C57.8112 98.1638 58.0322 97.9572 58.0975 97.6456L59.3512 91.0796C59.3512 91.0288 59.3621 90.9817 59.3621 90.9346C59.3621 90.565 58.8041 90.3802 57.6916 90.3802L57.909 89.2098H61.4928L59.8912 97.6456C59.8767 97.6963 59.873 97.7398 59.873 97.7688C59.873 98.1529 60.4311 98.3449 61.5544 98.3449L61.3189 99.5154H61.3152ZM60.9456 87.3074H60.9275C60.3079 87.3074 59.9999 86.9885 59.9999 86.3652C59.9999 85.9703 60.1484 85.6188 60.4275 85.3361C60.7101 85.0426 61.0398 84.894 61.4167 84.894C62.0508 84.894 62.3697 85.2129 62.3697 85.8398C62.3697 86.2348 62.2248 86.5754 61.9494 86.8689C61.6631 87.1624 61.3334 87.3038 60.9456 87.3038V87.3074Z" fill="#7E90A6"/>
<path d="M74.6426 99.5155H71.0625L72.1967 93.5691C72.2728 93.1995 72.309 92.8552 72.309 92.54C72.309 91.1847 71.7003 90.5144 70.49 90.5144C69.9211 90.5144 69.3703 90.7064 68.8485 91.0833C68.3593 91.4348 67.9788 91.8913 67.6962 92.4385C67.5657 92.6922 67.4751 92.9821 67.4063 93.2973L66.5837 97.6457C66.5728 97.6964 66.5656 97.7399 66.5656 97.7689C66.5656 98.153 67.1272 98.345 68.2397 98.345L68.015 99.5155H62.6484L62.8695 98.345C63.4601 98.345 63.8768 98.316 64.1196 98.2617C64.5146 98.1638 64.7356 97.9609 64.79 97.6529L65.8662 91.9856C65.9351 91.6232 66.0003 91.279 66.051 90.9492C66.051 90.5651 65.4966 90.3767 64.3805 90.3767L64.6016 89.2062H67.9063L67.6817 90.9021H67.7324C68.1056 90.3622 68.5948 89.9165 69.1927 89.5758C69.8776 89.1628 70.6059 88.9707 71.3741 88.9707C72.0952 88.9707 72.7076 89.1736 73.2004 89.594C73.8418 90.1266 74.1607 90.9456 74.1607 92.0327C74.1607 92.4385 74.1136 92.8842 74.023 93.3589L73.2077 97.6457C73.1968 97.6964 73.1932 97.7399 73.1932 97.7689C73.1932 98.153 73.7476 98.345 74.8709 98.345L74.6354 99.5155H74.6426Z" fill="#7E90A6"/>
<path d="M88.5541 90.3765C87.6518 90.3765 87.0865 90.4707 86.8546 90.6591L81.825 99.5116H80.2125L78.5528 90.6591C78.4043 90.4707 77.8752 90.3765 76.9766 90.3765L77.194 89.2061H81.9482L81.7308 90.3765C81.0604 90.3765 80.5966 90.4163 80.3538 90.4997L81.0024 94.9894C81.1763 96.1779 81.2851 97.0657 81.3249 97.6455H81.43C81.6873 97.0657 82.133 96.1779 82.7635 94.9894L85.1225 90.4997C84.9014 90.4163 84.4666 90.3765 83.7962 90.3765L84.01 89.2061H88.7715L88.5541 90.3765Z" fill="#7E90A6"/>
<path d="M98.6819 94.2686C98.3449 96.0261 97.5585 97.414 96.312 98.4322C95.2213 99.3055 94.0291 99.7512 92.721 99.7512H92.6993C91.3332 99.7512 90.2895 99.2656 89.5684 98.2945C89.0684 97.6241 88.8184 96.7907 88.8184 95.7978C88.8184 95.3775 88.8655 94.9209 88.9597 94.4462C89.2641 92.8663 89.9308 91.5763 90.9889 90.5472C92.0977 89.4927 93.4095 88.9673 94.9206 88.9673C96.3374 88.9673 97.3955 89.4492 98.084 90.4276C98.5732 91.1161 98.816 91.9459 98.816 92.9243C98.816 93.3446 98.7688 93.794 98.6783 94.2723H98.6819V94.2686ZM96.8012 94.3339C96.8773 93.9244 96.9099 93.5475 96.9099 93.1961C96.9099 92.6308 96.8157 92.1343 96.6309 91.685C96.2577 90.8045 95.5692 90.3624 94.5799 90.3624C93.5907 90.3624 92.7572 90.79 92.0325 91.6379C91.3911 92.3952 90.9708 93.3048 90.7715 94.3665C90.6954 94.7578 90.6592 95.1238 90.6592 95.4717C90.6592 96.1312 90.7969 96.7037 91.0759 97.1965C91.5035 97.9503 92.1485 98.3344 93.0073 98.3344H93.0254C93.9857 98.3344 94.83 97.9068 95.5438 97.0443C96.1743 96.287 96.591 95.3811 96.794 94.3303H96.8012V94.3339Z" fill="#7E90A6"/>
<path d="M108.353 90.7933C108.19 90.7534 107.994 90.7317 107.751 90.7317C107.125 90.7317 106.556 90.9491 106.041 91.3948C105.523 91.8405 105.135 92.4166 104.882 93.1377C104.784 93.4059 104.7 93.6994 104.642 94.0074L103.95 97.6492C103.936 97.6999 103.925 97.7434 103.925 97.7724C103.925 98.1565 104.49 98.3485 105.61 98.3485L105.378 99.519H100.008L100.229 98.3485C100.827 98.3485 101.247 98.3195 101.483 98.2652C101.87 98.1673 102.102 97.9608 102.16 97.6492L103.15 92.4203C103.255 91.8767 103.349 91.3839 103.421 90.931C103.407 90.565 102.852 90.3838 101.751 90.3838L101.972 89.2134H105.262L104.94 91.2353H105.016C105.371 90.5469 105.842 89.9997 106.422 89.5938C107.005 89.1771 107.592 88.9814 108.19 88.9814C108.382 88.9814 108.545 88.9923 108.679 89.0322L108.353 90.8041V90.7933Z" fill="#7E90A6"/>
<path d="M118.311 99.5156H115.003L115.333 97.4718H115.293C114.347 98.9901 113.162 99.7475 111.723 99.7475C110.741 99.7475 109.988 99.3597 109.466 98.5879C108.995 97.9139 108.767 97.0479 108.767 95.997C108.767 95.5042 108.81 95.0186 108.901 94.544C109.191 92.9749 109.879 91.6668 110.952 90.6268C112.075 89.5216 113.39 88.9708 114.894 88.9708C115.583 88.9708 116.166 89.0831 116.633 89.3223L117.257 86.1263C117.268 85.7422 116.71 85.5429 115.594 85.5429L115.811 84.3833H119.391L116.876 97.6458C116.815 97.9574 116.96 98.164 117.311 98.2618C117.521 98.3161 117.927 98.3451 118.536 98.3451L118.315 99.5156H118.311ZM115.702 94.4207L116.362 90.8261C115.952 90.529 115.412 90.3804 114.742 90.3804C113.702 90.3804 112.792 90.8261 112.002 91.7139C111.3 92.5111 110.847 93.4714 110.629 94.5838C110.56 94.9788 110.52 95.3665 110.52 95.7506C110.52 97.4465 111.14 98.2908 112.379 98.2908C113.206 98.2908 113.948 97.8414 114.608 96.9392C115.162 96.1854 115.521 95.3411 115.699 94.4207H115.702Z" fill="#7E90A6"/>
<path d="M128.446 94.6962H121.51C121.456 95.0187 121.434 95.3194 121.434 95.5984C121.434 97.3849 122.366 98.2654 124.228 98.2654C125.243 98.2654 126.189 98.0915 127.069 97.74L127.131 99.0807C126.131 99.5265 124.986 99.7475 123.696 99.7475C122.203 99.7475 121.101 99.2692 120.413 98.3089C119.931 97.6494 119.691 96.8341 119.691 95.8702C119.691 95.4463 119.735 94.9969 119.833 94.5186C120.123 92.9713 120.764 91.6777 121.746 90.6449C122.815 89.5216 124.08 88.96 125.536 88.96C126.993 88.96 127.957 89.5289 128.471 90.6848C128.711 91.232 128.834 91.8407 128.834 92.522C128.834 93.3989 128.703 94.12 128.45 94.6925H128.446V94.6962ZM127.051 93.3518C127.207 92.6198 127.16 91.9676 126.928 91.395C126.634 90.6631 126.036 90.3043 125.138 90.3043C124.315 90.3043 123.572 90.6558 122.927 91.3552C122.409 91.9168 122.029 92.5836 121.793 93.3518H127.051Z" fill="#7E90A6"/>
<path d="M138.028 90.7933C137.865 90.7534 137.673 90.7317 137.427 90.7317C136.796 90.7317 136.227 90.9491 135.72 91.3948C135.202 91.8405 134.818 92.4166 134.56 93.1377C134.459 93.4059 134.375 93.6994 134.314 94.0074L133.629 97.6492C133.611 97.6999 133.604 97.7434 133.604 97.7724C133.604 98.1565 134.165 98.3485 135.285 98.3485L135.053 99.519H129.687L129.9 98.3485C130.505 98.3485 130.922 98.3195 131.158 98.2652C131.549 98.1673 131.774 97.9608 131.839 97.6492L132.828 92.4203C132.93 91.8767 133.02 91.3839 133.093 90.931C133.082 90.565 132.527 90.3838 131.426 90.3838L131.643 89.2134H134.937L134.615 91.2353H134.687C135.053 90.5469 135.513 89.9997 136.097 89.5938C136.68 89.1771 137.267 88.9814 137.869 88.9814C138.057 88.9814 138.22 88.9923 138.358 89.0322L138.032 90.8041V90.7933H138.028Z" fill="#7E90A6"/>
<path d="M143.723 99.5154H138.356L138.577 98.3449C139.183 98.3449 139.596 98.316 139.824 98.2616C140.219 98.1638 140.444 97.9572 140.509 97.6456L141.755 91.0796C141.763 91.0288 141.763 90.9817 141.763 90.9346C141.763 90.565 141.208 90.3802 140.096 90.3802L140.313 89.2098H143.893L142.299 97.6456C142.281 97.6963 142.274 97.7398 142.274 97.7688C142.274 98.1529 142.835 98.3449 143.959 98.3449L143.723 99.5154ZM143.353 87.3074H143.335C142.723 87.3074 142.419 86.9885 142.419 86.3652C142.419 85.9703 142.556 85.6188 142.835 85.3361C143.118 85.0426 143.448 84.894 143.824 84.894C144.462 84.894 144.774 85.2129 144.774 85.8398C144.774 86.2348 144.633 86.5754 144.357 86.8689C144.075 87.1624 143.745 87.3038 143.353 87.3038V87.3074Z" fill="#7E90A6"/>
<path d="M157.053 99.5155H153.476L154.607 93.5691C154.679 93.1995 154.719 92.8552 154.719 92.54C154.719 91.1847 154.11 90.5144 152.9 90.5144C152.335 90.5144 151.784 90.7064 151.258 91.0833C150.776 91.4348 150.389 91.8913 150.113 92.4385C149.986 92.6922 149.885 92.9821 149.816 93.2973L148.997 97.6457C148.983 97.6964 148.979 97.7399 148.979 97.7689C148.979 98.153 149.541 98.345 150.653 98.345L150.429 99.5155H145.055L145.279 98.345C145.87 98.345 146.287 98.316 146.526 98.2617C146.921 98.1638 147.142 97.9609 147.204 97.6529L148.28 91.9856C148.352 91.6232 148.414 91.279 148.465 90.9492C148.465 90.5651 147.91 90.3767 146.798 90.3767L147.019 89.2062H150.316L150.099 90.9021H150.15C150.519 90.3622 151.008 89.9165 151.61 89.5758C152.298 89.1628 153.023 88.9707 153.788 88.9707C154.552 88.9707 155.128 89.1736 155.621 89.594C156.263 90.1266 156.581 90.9456 156.581 92.0327C156.581 92.4385 156.531 92.8842 156.444 93.3589L155.632 97.6457C155.621 97.6964 155.614 97.7399 155.614 97.7689C155.614 98.153 156.168 98.345 157.295 98.345L157.06 99.5155H157.053Z" fill="#7E90A6"/>
<path d="M167.006 98.1637C166.658 100.07 166.107 101.458 165.386 102.327C164.498 103.389 163.212 103.925 161.509 103.925C160.208 103.925 159.212 103.679 158.53 103.193L159.012 101.809C159.697 102.262 160.563 102.498 161.621 102.498C163.502 102.498 164.709 101.276 165.234 98.8232L165.567 97.2904H165.506C164.643 98.7435 163.498 99.4646 162.06 99.4646C161.118 99.4646 160.364 99.1059 159.813 98.3775C159.306 97.7108 159.045 96.8882 159.052 95.9098C159.052 95.4859 159.103 95.0221 159.193 94.522C159.498 92.8986 160.215 91.5724 161.324 90.5396C162.48 89.4707 163.839 88.938 165.397 88.938C166.542 88.938 167.604 89.1699 168.586 89.641L167.006 98.1601V98.1637ZM166.042 94.1415L166.702 90.7063C166.259 90.4708 165.716 90.3476 165.071 90.3476C163.861 90.3476 162.832 90.9201 162.005 92.0652C161.241 93.1124 160.846 94.2828 160.835 95.591C160.813 97.2433 161.447 98.0695 162.726 98.0695C163.52 98.0695 164.248 97.6093 164.926 96.6817C165.499 95.899 165.868 95.0474 166.046 94.1415H166.042Z" fill="#7E90A6"/>
<path d="M176.304 96.6271C176.13 97.5548 175.663 98.3013 174.905 98.8629C174.126 99.4463 173.155 99.7362 172.006 99.7362C170.934 99.7362 170.06 99.5007 169.357 99.0187L169.872 96.3264H170.995C170.887 96.8989 170.832 97.2866 170.832 97.5113C170.832 97.7939 170.89 97.9896 171.013 98.0911C171.111 98.1273 171.205 98.1563 171.311 98.1817C171.651 98.2831 171.977 98.3339 172.314 98.3339C173.601 98.3339 174.336 97.8266 174.532 96.8011C174.565 96.667 174.572 96.5547 174.572 96.4423C174.572 95.8408 174.061 95.3263 173.043 94.9059C171.637 94.3298 170.926 93.5144 170.926 92.46C170.926 92.3114 170.941 92.152 170.963 91.9817C171.137 91.1265 171.571 90.4199 172.285 89.8618C173.043 89.2639 173.934 88.9668 174.967 88.9668C175.92 88.9668 176.692 89.177 177.275 89.6009L176.76 92.286H175.648C175.75 91.7171 175.807 91.3258 175.807 91.0975C175.807 90.7786 175.724 90.5793 175.572 90.4851C175.271 90.4054 174.963 90.3619 174.641 90.3619C174.133 90.3619 173.713 90.496 173.369 90.7641C173.025 91.0323 172.818 91.3656 172.731 91.7642C172.72 91.8657 172.713 91.9672 172.713 92.0614C172.713 92.5868 173.231 93.0796 174.282 93.5217C175.666 94.1087 176.355 94.9349 176.355 95.993C176.355 96.1851 176.333 96.3952 176.297 96.6235H176.304V96.6271Z" fill="#7E90A6"/>
<path d="M188.509 94.0548C188.509 95.6165 188.107 96.9138 187.302 97.9574C186.4 99.1423 185.146 99.7366 183.548 99.7366C181.454 99.7366 180.243 98.8561 179.906 97.0841C179.819 96.6275 179.776 96.0949 179.776 95.4825V86.2422C179.776 85.9306 179.587 85.7313 179.211 85.6298C179 85.5755 178.587 85.5429 177.979 85.5429V84.3833H181.562V91.0798H181.588C182.211 89.6774 183.233 88.9744 184.671 88.9744C185.653 88.9744 186.483 89.3404 187.161 90.0796C187.762 90.7355 188.165 91.5943 188.367 92.656C188.451 93.1126 188.498 93.5837 188.498 94.0548H188.509ZM186.755 94.004C186.755 92.7974 186.461 91.8588 185.889 91.1848C185.458 90.692 184.925 90.4348 184.298 90.4348C183.428 90.4348 182.729 90.895 182.218 91.8154C181.791 92.5691 181.573 93.4387 181.566 94.4207L181.555 95.5296C181.548 95.9825 181.584 96.4174 181.678 96.8268C181.885 97.8414 182.512 98.3451 183.573 98.3451C184.635 98.3451 185.389 97.8886 185.972 96.9609C186.494 96.142 186.751 95.1563 186.751 94.004H186.755Z" fill="#7E90A6"/>
<path d="M198.799 93.819C198.799 94.185 198.774 94.4785 198.719 94.696H191.784C191.805 95.8157 192.11 96.6926 192.7 97.3231C193.288 97.9536 194.114 98.2652 195.175 98.2652C196.237 98.2652 197.107 98.0913 197.919 97.7398L198.23 99.0805C197.321 99.5262 196.212 99.7473 194.925 99.7473C193.422 99.7473 192.233 99.2653 191.353 98.3015C190.494 97.3557 190.062 96.1019 190.062 94.522C190.062 92.9421 190.454 91.6811 191.24 90.6484C192.099 89.525 193.255 88.9634 194.708 88.9634C196.161 88.9634 197.237 89.5323 197.973 90.6882C198.524 91.5615 198.806 92.6015 198.806 93.819H198.799ZM197.063 93.3516C197.071 92.6196 196.904 91.9674 196.571 91.3948C196.132 90.6629 195.465 90.3041 194.563 90.3041C193.74 90.3041 193.07 90.6556 192.563 91.355C192.146 91.9166 191.892 92.5834 191.798 93.3516H197.063Z" fill="#7E90A6"/>
<path d="M210.673 99.5154H207.361L207.303 97.4716H207.264C206.608 98.9899 205.56 99.7473 204.126 99.7473C203.151 99.7473 202.321 99.3595 201.654 98.5877C201.056 97.9137 200.654 97.0477 200.458 95.9968C200.368 95.504 200.313 95.0184 200.313 94.5437C200.313 92.9675 200.748 91.6521 201.625 90.6157C202.542 89.5178 203.752 88.9742 205.249 88.9742C205.937 88.9742 206.535 89.0866 207.053 89.3257L207.075 86.1297C207.01 85.7456 206.412 85.5463 205.292 85.5463V84.3867H208.872V97.6492C208.872 97.9608 209.057 98.1674 209.434 98.2652C209.652 98.3196 210.065 98.3485 210.673 98.3485V99.519V99.5154ZM207.097 94.4205L207.075 90.8259C206.611 90.5288 206.035 90.3802 205.365 90.3802C204.328 90.3802 203.51 90.8259 202.883 91.7137C202.332 92.5109 202.049 93.4711 202.049 94.5836C202.049 94.9786 202.089 95.3663 202.169 95.7504C202.48 97.4463 203.263 98.2906 204.517 98.2906C205.332 98.2906 205.988 97.8412 206.485 96.939C206.898 96.1852 207.097 95.3409 207.093 94.4205H207.097Z" fill="#7E90A6"/>
<path d="M218.443 90.7933C218.28 90.7534 218.07 90.7317 217.831 90.7317C217.208 90.7317 216.679 90.9491 216.251 91.3948C215.823 91.8405 215.544 92.4166 215.414 93.1377C215.367 93.4059 215.345 93.6994 215.345 94.0074V97.6492C215.345 97.9608 215.53 98.1673 215.91 98.2652C216.139 98.3195 216.544 98.3485 217.139 98.3485V99.519H211.769V98.3485C212.37 98.3485 212.776 98.3195 213.001 98.2652C213.367 98.1673 213.555 97.9608 213.555 97.6492V92.4203C213.555 91.8767 213.555 91.3839 213.544 90.931C213.461 90.565 212.867 90.3838 211.769 90.3838V89.2134H215.059L215.128 91.2353H215.186C215.418 90.5469 215.787 89.9997 216.284 89.5938C216.787 89.1771 217.338 88.9814 217.947 88.9814C218.124 88.9814 218.302 88.9923 218.443 89.0322V90.8041V90.7933Z" fill="#7E90A6"/>
<path d="M224.625 99.5154H219.255V98.3449C219.856 98.3449 220.262 98.316 220.483 98.2616C220.857 98.1638 221.052 97.9572 221.052 97.6456V91.0796C221.052 90.7679 220.86 90.5578 220.483 90.4563C220.266 90.402 219.856 90.3766 219.255 90.3766V89.2062H222.831V97.642C222.831 97.9536 223.02 98.1601 223.386 98.258C223.618 98.3123 224.031 98.3413 224.621 98.3413V99.5118H224.625V99.5154ZM223.092 86.1007C223.092 86.4413 222.987 86.7276 222.773 86.9559C222.56 87.1878 222.277 87.3074 221.933 87.3074H221.904C221.578 87.3074 221.309 87.1878 221.096 86.9559C220.889 86.724 220.784 86.4413 220.784 86.1007C220.784 85.7601 220.893 85.4738 221.11 85.2492C221.328 85.01 221.599 84.894 221.944 84.894C222.288 84.894 222.563 85.01 222.777 85.2347C222.991 85.4702 223.096 85.7528 223.096 86.1007H223.092Z" fill="#7E90A6"/>
<path d="M228.662 98.5804C228.662 102.182 227.245 103.987 224.404 104.009L224.216 102.53C225.133 102.469 225.796 102.2 226.187 101.744C226.644 101.197 226.879 99.9067 226.879 97.8702V91.0614C226.879 90.757 226.691 90.5504 226.31 90.4526C226.104 90.3946 225.698 90.3693 225.089 90.3693V89.2097H228.662V98.584V98.5804ZM228.923 86.0861C228.923 86.4449 228.818 86.7311 228.6 86.9558C228.387 87.1805 228.104 87.2928 227.767 87.2928H227.745C227.408 87.2928 227.133 87.1805 226.93 86.9522C226.72 86.7203 226.618 86.4376 226.618 86.0861C226.618 85.7347 226.727 85.4556 226.948 85.2273C227.173 84.9918 227.448 84.8867 227.785 84.8867C228.122 84.8867 228.39 84.9954 228.597 85.2273C228.814 85.4593 228.919 85.7455 228.919 86.0861H228.923Z" fill="#7E90A6"/>
<path d="M237.289 84.4556L237.053 85.887C236.702 85.7384 236.318 85.6659 235.894 85.6659C234.615 85.6659 233.97 86.6552 233.97 88.6482V89.2098H236.358V90.6303H233.981V97.6456C233.981 97.9573 234.169 98.1638 234.539 98.2616C234.763 98.316 235.176 98.345 235.771 98.345V99.5154H230.4V98.345C230.987 98.345 231.408 98.316 231.632 98.2616C232.009 98.1674 232.187 97.979 232.187 97.6819V90.6303H230.81V89.2098H232.187V88.7134C232.187 87.0864 232.575 85.8797 233.339 85.1079C233.966 84.4737 234.767 84.1621 235.749 84.1621C236.343 84.1621 236.854 84.2599 237.285 84.4629V84.4556H237.289Z" fill="#7E90A6"/>
</g>
<defs>
<clipPath id="clip0_2080_4095">
<rect width="237.29" height="120" fill="white"/>
</clipPath>
</defs>
</svg>
